<svg width="290" height="62" viewBox="0 0 290 62" fill="none" xmlns="http://www.w3.org/2000/svg">


<path d="M0 44.1673L17.4915 44.1673M0 14.5113L30.6177 14.5113M29.3126 1.229L7.32814 60.9991M246.6 44.8543H278.355M274.233 1L252.248 61M258.968 15.6563L289.347 15.6563" stroke="black" stroke-opacity="0.56" stroke-width="0.2"/>


<path d="M274.522 26.1277V20.7262H276.981C277.299 20.7262 277.586 20.7945 277.845 20.9312C278.104 21.0629 278.306 21.2532 278.452 21.5021C278.604 21.746 278.679 22.0363 278.679 22.373C278.679 22.7146 278.604 23.0147 278.452 23.2733C278.301 23.527 278.094 23.727 277.83 23.8734C277.572 24.0149 277.279 24.0857 276.952 24.0857H274.917V23.4782H276.82C277.157 23.4782 277.425 23.3806 277.625 23.1854C277.83 22.9903 277.933 22.7195 277.933 22.373C277.933 22.0217 277.83 21.7607 277.625 21.5899C277.425 21.4191 277.159 21.3337 276.828 21.3337H275.232V26.1277H274.522ZM277.567 23.6612L278.899 26.1277H278.108L276.798 23.6612H277.567ZM276.447 29.3481C275.637 29.3481 274.878 29.1968 274.171 28.8943C273.463 28.5918 272.841 28.1721 272.304 27.6354C271.768 27.0987 271.348 26.4766 271.046 25.7691C270.743 25.0615 270.592 24.3028 270.592 23.4928C270.592 22.6829 270.743 21.9241 271.046 21.2166C271.348 20.5091 271.768 19.887 272.304 19.3503C272.841 18.8135 273.463 18.3939 274.171 18.0914C274.878 17.7889 275.637 17.6376 276.447 17.6376C277.257 17.6376 278.016 17.7889 278.723 18.0914C279.431 18.3939 280.053 18.8135 280.59 19.3503C281.126 19.887 281.546 20.5091 281.848 21.2166C282.151 21.9241 282.302 22.6829 282.302 23.4928C282.302 24.3028 282.151 25.0615 281.848 25.7691C281.546 26.4766 281.126 27.0987 280.59 27.6354C280.053 28.1721 279.431 28.5918 278.723 28.8943C278.016 29.1968 277.257 29.3481 276.447 29.3481ZM276.447 28.5649C277.384 28.5649 278.235 28.338 279.001 27.8842C279.772 27.4305 280.385 26.8205 280.838 26.0545C281.292 25.2836 281.519 24.4297 281.519 23.4928C281.519 22.556 281.29 21.7045 280.831 20.9385C280.377 20.1724 279.767 19.5625 279.001 19.1087C278.235 18.6501 277.384 18.4207 276.447 18.4207C275.51 18.4207 274.656 18.6476 273.885 19.1014C273.119 19.5552 272.509 20.1676 272.056 20.9385C271.602 21.7045 271.375 22.556 271.375 23.4928C271.375 24.4248 271.602 25.2762 272.056 26.0472C272.509 26.8181 273.119 27.4305 273.885 27.8842C274.656 28.338 275.51 28.5649 276.447 28.5649Z" fill="black"/>


<path d="M51.6202 44.8402V14.8614H63.0965C65.2629 14.8614 67.0634 15.203 68.4979 15.8861C69.9422 16.5595 71.0205 17.4816 71.7329 18.6527C72.4551 19.8237 72.8161 21.1509 72.8161 22.6342C72.8161 23.8541 72.5819 24.8983 72.1135 25.7668C71.6451 26.6256 71.0157 27.3233 70.2252 27.86C69.4348 28.3968 68.5516 28.7822 67.5757 29.0164V29.3092C68.6394 29.3678 69.6592 29.6947 70.6351 30.29C71.6207 30.8755 72.4258 31.705 73.0504 32.7784C73.6749 33.8519 73.9872 35.1498 73.9872 36.6721C73.9872 38.2238 73.6115 39.6193 72.8601 40.8586C72.1086 42.0882 70.9766 43.0592 69.464 43.7716C67.9514 44.484 66.0485 44.8402 63.7552 44.8402H51.6202ZM57.051 40.3024H62.8915C64.8628 40.3024 66.2827 39.9267 67.1512 39.1753C68.0295 38.4141 68.4686 37.4382 68.4686 36.2476C68.4686 35.3596 68.2491 34.5594 67.8099 33.847C67.3708 33.1249 66.7462 32.5588 65.9363 32.149C65.1263 31.7294 64.1602 31.5195 63.0379 31.5195H57.051V40.3024ZM57.051 27.6112H62.4231C63.36 27.6112 64.2041 27.4404 64.9555 27.0989C65.7069 26.7475 66.2973 26.2547 66.7267 25.6204C67.1659 24.9763 67.3854 24.2152 67.3854 23.3369C67.3854 22.1756 66.9756 21.2192 66.1558 20.4678C65.3459 19.7164 64.1407 19.3407 62.5402 19.3407H57.051V27.6112Z M100.055 44.8402V14.8614H111.531C113.697 14.8614 115.498 15.203 116.932 15.8861C118.377 16.5595 119.455 17.4816 120.167 18.6527C120.889 19.8237 121.251 21.1509 121.251 22.6342C121.251 23.8541 121.016 24.8983 120.548 25.7668C120.08 26.6256 119.45 27.3233 118.66 27.86C117.869 28.3968 116.986 28.7822 116.01 29.0164V29.3092C117.074 29.3678 118.094 29.6947 119.069 30.29C120.055 30.8755 120.86 31.705 121.485 32.7784C122.109 33.8519 122.422 35.1498 122.422 36.6721C122.422 38.2238 122.046 39.6193 121.294 40.8586C120.543 42.0882 119.411 43.0592 117.898 43.7716C116.386 44.484 114.483 44.8402 112.19 44.8402H100.055ZM105.485 40.3024H111.326C113.297 40.3024 114.717 39.9267 115.586 39.1753C116.464 38.4141 116.903 37.4382 116.903 36.2476C116.903 35.3596 116.683 34.5594 116.244 33.847C115.805 33.1249 115.181 32.5588 114.371 32.149C113.561 31.7294 112.595 31.5195 111.472 31.5195H105.485V40.3024ZM105.485 27.6112H110.858C111.794 27.6112 112.639 27.4404 113.39 27.0989C114.141 26.7475 114.732 26.2547 115.161 25.6204C115.6 24.9763 115.82 24.2152 115.82 23.3369C115.82 22.1756 115.41 21.2192 114.59 20.4678C113.78 19.7164 112.575 19.3407 110.975 19.3407H105.485V27.6112Z M84.4741 44.8672C82.5955 44.8672 80.9808 44.5273 79.6301 43.8474C78.2793 43.1676 77.2372 42.2506 76.5036 41.0967C75.7791 39.9338 75.4168 38.6233 75.4168 37.1651C75.4168 36.0648 75.6404 35.0898 76.0877 34.24C76.5439 33.3901 77.1701 32.6029 77.9662 31.8784C78.7713 31.1538 79.7016 30.4337 80.7572 29.718L85.628 26.4037C86.3437 25.9386 86.8849 25.4466 87.2516 24.9277C87.6273 24.4089 87.8152 23.8006 87.8152 23.1028C87.8152 22.5124 87.5647 21.9533 87.0638 21.4256C86.5718 20.8978 85.8919 20.6339 85.0242 20.6339C84.4427 20.6339 83.9284 20.7725 83.4811 21.0499C83.0428 21.3182 82.6984 21.6716 82.4479 22.1099C82.2064 22.5482 82.0856 23.0134 82.0856 23.5054C82.0856 24.1047 82.2511 24.713 82.5821 25.3303C82.922 25.9475 83.3603 26.5871 83.8971 27.2491C84.4428 27.911 85.0242 28.6133 85.6414 29.3557L98.5364 44.4647H93.2764L82.5687 32.2004C81.7725 31.2701 81.0032 30.3532 80.2607 29.4497C79.5272 28.5462 78.9234 27.6069 78.4493 26.6318C77.9841 25.6478 77.7515 24.5833 77.7515 23.4383C77.7515 22.1412 78.0512 20.9828 78.6506 19.963C79.2499 18.9342 80.0863 18.1247 81.1598 17.5343C82.2422 16.9439 83.5079 16.6487 84.9571 16.6487C86.4063 16.6487 87.6497 16.9349 88.6874 17.5074C89.7251 18.08 90.5257 18.8403 91.0892 19.7885C91.6528 20.7368 91.9346 21.77 91.9346 22.8882C91.9346 24.1852 91.6126 25.3482 90.9685 26.3769C90.3244 27.3967 89.4299 28.3225 88.2848 29.1545L82.7297 33.2202C81.8173 33.8821 81.1642 34.5531 80.7706 35.2329C80.377 35.9038 80.1802 36.4763 80.1802 36.9504C80.1802 37.675 80.3636 38.3325 80.7304 38.9229C81.0971 39.5133 81.6115 39.9874 82.2735 40.3453C82.9444 40.6941 83.7271 40.8686 84.6217 40.8686C85.6057 40.8686 86.5762 40.6494 87.5334 40.2111C88.4906 39.7638 89.3628 39.1287 90.15 38.3057C90.9372 37.4827 91.5634 36.4987 92.0285 35.3537C92.4937 34.1997 92.7263 32.9205 92.7263 31.5161H96.8993C96.8993 33.2515 96.707 34.7633 96.3223 36.0514C95.9377 37.3306 95.4412 38.413 94.8329 39.2986C94.2246 40.1753 93.5806 40.8775 92.9007 41.4053C92.686 41.5574 92.4803 41.7094 92.2835 41.8615C92.0867 42.0136 91.8809 42.1657 91.6662 42.3177C90.7001 43.1944 89.5685 43.8385 88.2714 44.25C86.9833 44.6615 85.7175 44.8672 84.4741 44.8672Z" fill="black"/>


<path d="M153.151 24.2439C152.975 23.2193 152.614 22.1897 152.068 21.1553C151.531 20.1111 150.814 19.1548 149.916 18.2863C149.028 17.4177 147.974 16.72 146.754 16.193C145.534 15.666 144.153 15.4026 142.611 15.4026C140.318 15.4026 138.308 16.0076 136.581 17.2177C134.863 18.418 133.526 20.1063 132.57 22.2824C131.613 24.4489 131.135 26.9764 131.135 29.865C131.135 32.7145 131.608 35.2274 132.555 37.4036C133.502 39.5798 134.843 41.2778 136.581 42.4976C138.318 43.7174 140.367 44.3274 142.728 44.3274C144.817 44.3274 146.671 43.8346 148.291 42.8489C149.911 41.8535 151.175 40.4288 152.082 38.5746C152.99 36.7107 153.424 34.4711 153.385 31.8557L153.795 32.2071H143.021V31.2702H154.322V32.2071C154.322 34.9395 153.824 37.2816 152.829 39.2333C151.833 41.1753 150.462 42.6684 148.715 43.7126C146.969 44.747 144.973 45.2642 142.728 45.2642C140.191 45.2642 137.981 44.6201 136.097 43.332C134.224 42.0341 132.77 40.2287 131.735 37.9159C130.711 35.6031 130.198 32.9194 130.198 29.865C130.198 27.5619 130.491 25.4687 131.077 23.5852C131.672 21.692 132.516 20.0672 133.609 18.7108C134.712 17.3445 136.024 16.2955 137.547 15.5636C139.069 14.8317 140.757 14.4657 142.611 14.4657C144.368 14.4657 145.92 14.7682 147.266 15.3733C148.613 15.9783 149.76 16.7737 150.706 17.7593C151.663 18.7352 152.419 19.794 152.975 20.9357C153.541 22.0678 153.912 23.1705 154.088 24.2439H153.151Z M210.444 29.865C210.444 32.9194 209.921 35.6031 208.877 37.9159C207.833 40.2287 206.379 42.0341 204.515 43.332C202.651 44.6201 200.49 45.2642 198.03 45.2642C195.561 45.2642 193.395 44.6152 191.531 43.3173C189.667 42.0194 188.213 40.2141 187.169 37.9013C186.135 35.5884 185.617 32.9097 185.617 29.865C185.617 26.8105 186.139 24.1317 187.184 21.8287C188.228 19.5159 189.682 17.7105 191.546 16.4126C193.41 15.1147 195.571 14.4657 198.03 14.4657C200.49 14.4657 202.651 15.1147 204.515 16.4126C206.379 17.7007 207.833 19.5012 208.877 21.814C209.921 24.1268 210.444 26.8105 210.444 29.865ZM209.507 29.865C209.507 26.9959 209.024 24.4782 208.057 22.3117C207.091 20.1355 205.745 18.4424 204.017 17.2323C202.3 16.0125 200.304 15.4026 198.03 15.4026C195.766 15.4026 193.771 16.0076 192.043 17.2177C190.326 18.418 188.979 20.1063 188.003 22.2824C187.037 24.4489 186.554 26.9764 186.554 29.865C186.554 32.7145 187.032 35.2274 187.989 37.4036C188.945 39.57 190.282 41.268 192 42.4976C193.727 43.7174 195.737 44.3274 198.03 44.3274C200.304 44.3274 202.305 43.7223 204.032 42.5122C205.759 41.2924 207.106 39.5993 208.072 37.4328C209.038 35.2566 209.516 32.734 209.507 29.865Z M238.612 14.8756H239.549V34.7248C239.549 36.7546 239.076 38.5697 238.129 40.1702C237.192 41.7608 235.914 43.0197 234.294 43.9468C232.674 44.8641 230.835 45.3228 228.776 45.3228C226.736 45.3228 224.901 44.8592 223.272 43.9321C221.642 43.0051 220.354 41.7462 219.407 40.1555C218.461 38.5551 217.992 36.7449 218.002 34.7248V14.8756H218.939V34.7248C218.939 36.579 219.363 38.2331 220.212 39.6871C221.071 41.1411 222.242 42.2878 223.725 43.127C225.209 43.9663 226.892 44.3859 228.776 44.3859C230.659 44.3859 232.342 43.9663 233.826 43.127C235.309 42.2878 236.475 41.1411 237.324 39.6871C238.183 38.2331 238.612 36.579 238.612 34.7248V14.8756Z M246.513 44.8543V14.8756H255.296C256.974 14.8756 258.458 15.2513 259.746 16.0027C261.044 16.7541 262.059 17.7886 262.791 19.106C263.532 20.4234 263.903 21.9409 263.903 23.6584C263.903 25.3564 263.532 26.8642 262.791 28.1816C262.059 29.4893 261.044 30.5188 259.746 31.2702C258.458 32.0119 256.974 32.3827 255.296 32.3827H246.981V31.4459H255.296C256.799 31.4459 258.126 31.1141 259.277 30.4505C260.429 29.7869 261.332 28.8696 261.985 27.6985C262.639 26.5275 262.966 25.1808 262.966 23.6584C262.966 22.1263 262.639 20.7698 261.985 19.589C261.332 18.4082 260.429 17.486 259.277 16.8224C258.126 16.1491 256.799 15.8124 255.296 15.8124H247.45V44.8543H246.513Z M161.209 44.8543V14.8756H169.992C171.67 14.8756 173.154 15.2318 174.442 15.9442C175.74 16.6566 176.754 17.6519 177.486 18.9303C178.228 20.2087 178.599 21.7067 178.599 23.4242C178.599 25.1222 178.228 26.6104 177.486 27.8888C176.754 29.1575 175.74 30.148 174.442 30.8603C173.154 31.563 171.67 31.9143 169.992 31.9143H161.677V30.9775H169.992C171.495 30.9775 172.822 30.6652 173.973 30.0406C175.125 29.4161 176.027 28.5378 176.681 27.4058C177.335 26.2738 177.662 24.9466 177.662 23.4242C177.662 21.8921 177.335 20.5552 176.681 19.4134C176.027 18.2716 175.125 17.3885 173.973 16.7639C172.822 16.1296 171.495 15.8124 169.992 15.8124H162.146V44.8543H161.209ZM172.627 31.2117L180.004 44.8543H178.95L171.573 31.2117H172.627Z" fill="black"/>

<path d="M32.6223 44.6977H27.9723C27.7336 44.6977 27.5677 44.4602 27.6498 44.236L38.3903 14.9138C38.4399 14.7785 38.5687 14.6885 38.7129 14.6885H43.3628C43.6015 14.6885 43.7675 14.9259 43.6854 15.1501L32.9448 44.4723C32.8952 44.6077 32.7664 44.6977 32.6223 44.6977Z M18.653 44.5836H14.003C13.7643 44.5836 13.5984 44.3461 13.6805 44.122L24.4211 14.7998C24.4706 14.6644 24.5995 14.5744 24.7436 14.5744H29.3936C29.6323 14.5744 29.7982 14.8119 29.7161 15.0361L18.9755 44.3583C18.926 44.4936 18.7971 44.5836 18.653 44.5836Z" fill="#E00000"/>
</svg>



<svg width="290" height="62" viewBox="0 0 290 62" fill="none" xmlns="http://www.w3.org/2000/svg">


                    d: "M0 44.1673L17.4915 44.1673M0 14.5113L30.6177 14.5113M29.3126 1.229L7.32814 60.9991M246.6 44.8543H278.355M274.233 1L252.248 61M258.968 15.6563L289.347 15.6563",
stroke="black" stroke-opacity="0.56" stroke-width="0.2"/>


                    d: "M274.522 26.1277V20.7262H276.981C277.299 20.7262 277.586 20.7945 277.845 20.9312C278.104 21.0629 278.306 21.2532 278.452 21.5021C278.604 21.746 278.679 22.0363 278.679 22.373C278.679 22.7146 278.604 23.0147 278.452 23.2733C278.301 23.527 278.094 23.727 277.83 23.8734C277.572 24.0149 277.279 24.0857 276.952 24.0857H274.917V23.4782H276.82C277.157 23.4782 277.425 23.3806 277.625 23.1854C277.83 22.9903 277.933 22.7195 277.933 22.373C277.933 22.0217 277.83 21.7607 277.625 21.5899C277.425 21.4191 277.159 21.3337 276.828 21.3337H275.232V26.1277H274.522ZM277.567 23.6612L278.899 26.1277H278.108L276.798 23.6612H277.567ZM276.447 29.3481C275.637 29.3481 274.878 29.1968 274.171 28.8943C273.463 28.5918 272.841 28.1721 272.304 27.6354C271.768 27.0987 271.348 26.4766 271.046 25.7691C270.743 25.0615 270.592 24.3028 270.592 23.4928C270.592 22.6829 270.743 21.9241 271.046 21.2166C271.348 20.5091 271.768 19.887 272.304 19.3503C272.841 18.8135 273.463 18.3939 274.171 18.0914C274.878 17.7889 275.637 17.6376 276.447 17.6376C277.257 17.6376 278.016 17.7889 278.723 18.0914C279.431 18.3939 280.053 18.8135 280.59 19.3503C281.126 19.887 281.546 20.5091 281.848 21.2166C282.151 21.9241 282.302 22.6829 282.302 23.4928C282.302 24.3028 282.151 25.0615 281.848 25.7691C281.546 26.4766 281.126 27.0987 280.59 27.6354C280.053 28.1721 279.431 28.5918 278.723 28.8943C278.016 29.1968 277.257 29.3481 276.447 29.3481ZM276.447 28.5649C277.384 28.5649 278.235 28.338 279.001 27.8842C279.772 27.4305 280.385 26.8205 280.838 26.0545C281.292 25.2836 281.519 24.4297 281.519 23.4928C281.519 22.556 281.29 21.7045 280.831 20.9385C280.377 20.1724 279.767 19.5625 279.001 19.1087C278.235 18.6501 277.384 18.4207 276.447 18.4207C275.51 18.4207 274.656 18.6476 273.885 19.1014C273.119 19.5552 272.509 20.1676 272.056 20.9385C271.602 21.7045 271.375 22.556 271.375 23.4928C271.375 24.4248 271.602 25.2762 272.056 26.0472C272.509 26.8181 273.119 27.4305 273.885 27.8842C274.656 28.338 275.51 28.5649 276.447 28.5649Z",


                    d: "M51.6202 44.8402V14.8614H63.0965C65.2629 14.8614 67.0634 15.203 68.4979 15.8861C69.9422 16.5595 71.0205 17.4816 71.7329 18.6527C72.4551 19.8237 72.8161 21.1509 72.8161 22.6342C72.8161 23.8541 72.5819 24.8983 72.1135 25.7668C71.6451 26.6256 71.0157 27.3233 70.2252 27.86C69.4348 28.3968 68.5516 28.7822 67.5757 29.0164V29.3092C68.6394 29.3678 69.6592 29.6947 70.6351 30.29C71.6207 30.8755 72.4258 31.705 73.0504 32.7784C73.6749 33.8519 73.9872 35.1498 73.9872 36.6721C73.9872 38.2238 73.6115 39.6193 72.8601 40.8586C72.1086 42.0882 70.9766 43.0592 69.464 43.7716C67.9514 44.484 66.0485 44.8402 63.7552 44.8402H51.6202ZM57.051 40.3024H62.8915C64.8628 40.3024 66.2827 39.9267 67.1512 39.1753C68.0295 38.4141 68.4686 37.4382 68.4686 36.2476C68.4686 35.3596 68.2491 34.5594 67.8099 33.847C67.3708 33.1249 66.7462 32.5588 65.9363 32.149C65.1263 31.7294 64.1602 31.5195 63.0379 31.5195H57.051V40.3024ZM57.051 27.6112H62.4231C63.36 27.6112 64.2041 27.4404 64.9555 27.0989C65.7069 26.7475 66.2973 26.2547 66.7267 25.6204C67.1659 24.9763 67.3854 24.2152 67.3854 23.3369C67.3854 22.1756 66.9756 21.2192 66.1558 20.4678C65.3459 19.7164 64.1407 19.3407 62.5402 19.3407H57.051V27.6112Z M100.055 44.8402V14.8614H111.531C113.697 14.8614 115.498 15.203 116.932 15.8861C118.377 16.5595 119.455 17.4816 120.167 18.6527C120.889 19.8237 121.251 21.1509 121.251 22.6342C121.251 23.8541 121.016 24.8983 120.548 25.7668C120.08 26.6256 119.45 27.3233 118.66 27.86C117.869 28.3968 116.986 28.7822 116.01 29.0164V29.3092C117.074 29.3678 118.094 29.6947 119.069 30.29C120.055 30.8755 120.86 31.705 121.485 32.7784C122.109 33.8519 122.422 35.1498 122.422 36.6721C122.422 38.2238 122.046 39.6193 121.294 40.8586C120.543 42.0882 119.411 43.0592 117.898 43.7716C116.386 44.484 114.483 44.8402 112.19 44.8402H100.055ZM105.485 40.3024H111.326C113.297 40.3024 114.717 39.9267 115.586 39.1753C116.464 38.4141 116.903 37.4382 116.903 36.2476C116.903 35.3596 116.683 34.5594 116.244 33.847C115.805 33.1249 115.181 32.5588 114.371 32.149C113.561 31.7294 112.595 31.5195 111.472 31.5195H105.485V40.3024ZM105.485 27.6112H110.858C111.794 27.6112 112.639 27.4404 113.39 27.0989C114.141 26.7475 114.732 26.2547 115.161 25.6204C115.6 24.9763 115.82 24.2152 115.82 23.3369C115.82 22.1756 115.41 21.2192 114.59 20.4678C113.78 19.7164 112.575 19.3407 110.975 19.3407H105.485V27.6112Z M84.4741 44.8672C82.5955 44.8672 80.9808 44.5273 79.6301 43.8474C78.2793 43.1676 77.2372 42.2506 76.5036 41.0967C75.7791 39.9338 75.4168 38.6233 75.4168 37.1651C75.4168 36.0648 75.6404 35.0898 76.0877 34.24C76.5439 33.3901 77.1701 32.6029 77.9662 31.8784C78.7713 31.1538 79.7016 30.4337 80.7572 29.718L85.628 26.4037C86.3437 25.9386 86.8849 25.4466 87.2516 24.9277C87.6273 24.4089 87.8152 23.8006 87.8152 23.1028C87.8152 22.5124 87.5647 21.9533 87.0638 21.4256C86.5718 20.8978 85.8919 20.6339 85.0242 20.6339C84.4427 20.6339 83.9284 20.7725 83.4811 21.0499C83.0428 21.3182 82.6984 21.6716 82.4479 22.1099C82.2064 22.5482 82.0856 23.0134 82.0856 23.5054C82.0856 24.1047 82.2511 24.713 82.5821 25.3303C82.922 25.9475 83.3603 26.5871 83.8971 27.2491C84.4428 27.911 85.0242 28.6133 85.6414 29.3557L98.5364 44.4647H93.2764L82.5687 32.2004C81.7725 31.2701 81.0032 30.3532 80.2607 29.4497C79.5272 28.5462 78.9234 27.6069 78.4493 26.6318C77.9841 25.6478 77.7515 24.5833 77.7515 23.4383C77.7515 22.1412 78.0512 20.9828 78.6506 19.963C79.2499 18.9342 80.0863 18.1247 81.1598 17.5343C82.2422 16.9439 83.5079 16.6487 84.9571 16.6487C86.4063 16.6487 87.6497 16.9349 88.6874 17.5074C89.7251 18.08 90.5257 18.8403 91.0892 19.7885C91.6528 20.7368 91.9346 21.77 91.9346 22.8882C91.9346 24.1852 91.6126 25.3482 90.9685 26.3769C90.3244 27.3967 89.4299 28.3225 88.2848 29.1545L82.7297 33.2202C81.8173 33.8821 81.1642 34.5531 80.7706 35.2329C80.377 35.9038 80.1802 36.4763 80.1802 36.9504C80.1802 37.675 80.3636 38.3325 80.7304 38.9229C81.0971 39.5133 81.6115 39.9874 82.2735 40.3453C82.9444 40.6941 83.7271 40.8686 84.6217 40.8686C85.6057 40.8686 86.5762 40.6494 87.5334 40.2111C88.4906 39.7638 89.3628 39.1287 90.15 38.3057C90.9372 37.4827 91.5634 36.4987 92.0285 35.3537C92.4937 34.1997 92.7263 32.9205 92.7263 31.5161H96.8993C96.8993 33.2515 96.707 34.7633 96.3223 36.0514C95.9377 37.3306 95.4412 38.413 94.8329 39.2986C94.2246 40.1753 93.5806 40.8775 92.9007 41.4053C92.686 41.5574 92.4803 41.7094 92.2835 41.8615C92.0867 42.0136 91.8809 42.1657 91.6662 42.3177C90.7001 43.1944 89.5685 43.8385 88.2714 44.25C86.9833 44.6615 85.7175 44.8672 84.4741 44.8672Z",


                    d: "M153.151 24.2439C152.975 23.2193 152.614 22.1897 152.068 21.1553C151.531 20.1111 150.814 19.1548 149.916 18.2863C149.028 17.4177 147.974 16.72 146.754 16.193C145.534 15.666 144.153 15.4026 142.611 15.4026C140.318 15.4026 138.308 16.0076 136.581 17.2177C134.863 18.418 133.526 20.1063 132.57 22.2824C131.613 24.4489 131.135 26.9764 131.135 29.865C131.135 32.7145 131.608 35.2274 132.555 37.4036C133.502 39.5798 134.843 41.2778 136.581 42.4976C138.318 43.7174 140.367 44.3274 142.728 44.3274C144.817 44.3274 146.671 43.8346 148.291 42.8489C149.911 41.8535 151.175 40.4288 152.082 38.5746C152.99 36.7107 153.424 34.4711 153.385 31.8557L153.795 32.2071H143.021V31.2702H154.322V32.2071C154.322 34.9395 153.824 37.2816 152.829 39.2333C151.833 41.1753 150.462 42.6684 148.715 43.7126C146.969 44.747 144.973 45.2642 142.728 45.2642C140.191 45.2642 137.981 44.6201 136.097 43.332C134.224 42.0341 132.77 40.2287 131.735 37.9159C130.711 35.6031 130.198 32.9194 130.198 29.865C130.198 27.5619 130.491 25.4687 131.077 23.5852C131.672 21.692 132.516 20.0672 133.609 18.7108C134.712 17.3445 136.024 16.2955 137.547 15.5636C139.069 14.8317 140.757 14.4657 142.611 14.4657C144.368 14.4657 145.92 14.7682 147.266 15.3733C148.613 15.9783 149.76 16.7737 150.706 17.7593C151.663 18.7352 152.419 19.794 152.975 20.9357C153.541 22.0678 153.912 23.1705 154.088 24.2439H153.151Z M210.444 29.865C210.444 32.9194 209.921 35.6031 208.877 37.9159C207.833 40.2287 206.379 42.0341 204.515 43.332C202.651 44.6201 200.49 45.2642 198.03 45.2642C195.561 45.2642 193.395 44.6152 191.531 43.3173C189.667 42.0194 188.213 40.2141 187.169 37.9013C186.135 35.5884 185.617 32.9097 185.617 29.865C185.617 26.8105 186.139 24.1317 187.184 21.8287C188.228 19.5159 189.682 17.7105 191.546 16.4126C193.41 15.1147 195.571 14.4657 198.03 14.4657C200.49 14.4657 202.651 15.1147 204.515 16.4126C206.379 17.7007 207.833 19.5012 208.877 21.814C209.921 24.1268 210.444 26.8105 210.444 29.865ZM209.507 29.865C209.507 26.9959 209.024 24.4782 208.057 22.3117C207.091 20.1355 205.745 18.4424 204.017 17.2323C202.3 16.0125 200.304 15.4026 198.03 15.4026C195.766 15.4026 193.771 16.0076 192.043 17.2177C190.326 18.418 188.979 20.1063 188.003 22.2824C187.037 24.4489 186.554 26.9764 186.554 29.865C186.554 32.7145 187.032 35.2274 187.989 37.4036C188.945 39.57 190.282 41.268 192 42.4976C193.727 43.7174 195.737 44.3274 198.03 44.3274C200.304 44.3274 202.305 43.7223 204.032 42.5122C205.759 41.2924 207.106 39.5993 208.072 37.4328C209.038 35.2566 209.516 32.734 209.507 29.865Z M238.612 14.8756H239.549V34.7248C239.549 36.7546 239.076 38.5697 238.129 40.1702C237.192 41.7608 235.914 43.0197 234.294 43.9468C232.674 44.8641 230.835 45.3228 228.776 45.3228C226.736 45.3228 224.901 44.8592 223.272 43.9321C221.642 43.0051 220.354 41.7462 219.407 40.1555C218.461 38.5551 217.992 36.7449 218.002 34.7248V14.8756H218.939V34.7248C218.939 36.579 219.363 38.2331 220.212 39.6871C221.071 41.1411 222.242 42.2878 223.725 43.127C225.209 43.9663 226.892 44.3859 228.776 44.3859C230.659 44.3859 232.342 43.9663 233.826 43.127C235.309 42.2878 236.475 41.1411 237.324 39.6871C238.183 38.2331 238.612 36.579 238.612 34.7248V14.8756Z M246.513 44.8543V14.8756H255.296C256.974 14.8756 258.458 15.2513 259.746 16.0027C261.044 16.7541 262.059 17.7886 262.791 19.106C263.532 20.4234 263.903 21.9409 263.903 23.6584C263.903 25.3564 263.532 26.8642 262.791 28.1816C262.059 29.4893 261.044 30.5188 259.746 31.2702C258.458 32.0119 256.974 32.3827 255.296 32.3827H246.981V31.4459H255.296C256.799 31.4459 258.126 31.1141 259.277 30.4505C260.429 29.7869 261.332 28.8696 261.985 27.6985C262.639 26.5275 262.966 25.1808 262.966 23.6584C262.966 22.1263 262.639 20.7698 261.985 19.589C261.332 18.4082 260.429 17.486 259.277 16.8224C258.126 16.1491 256.799 15.8124 255.296 15.8124H247.45V44.8543H246.513Z M161.209 44.8543V14.8756H169.992C171.67 14.8756 173.154 15.2318 174.442 15.9442C175.74 16.6566 176.754 17.6519 177.486 18.9303C178.228 20.2087 178.599 21.7067 178.599 23.4242C178.599 25.1222 178.228 26.6104 177.486 27.8888C176.754 29.1575 175.74 30.148 174.442 30.8603C173.154 31.563 171.67 31.9143 169.992 31.9143H161.677V30.9775H169.992C171.495 30.9775 172.822 30.6652 173.973 30.0406C175.125 29.4161 176.027 28.5378 176.681 27.4058C177.335 26.2738 177.662 24.9466 177.662 23.4242C177.662 21.8921 177.335 20.5552 176.681 19.4134C176.027 18.2716 175.125 17.3885 173.973 16.7639C172.822 16.1296 171.495 15.8124 169.992 15.8124H162.146V44.8543H161.209ZM172.627 31.2117L180.004 44.8543H178.95L171.573 31.2117H172.627Z",

                    d: "M32.6223 44.6977H27.9723C27.7336 44.6977 27.5677 44.4602 27.6498 44.236L38.3903 14.9138C38.4399 14.7785 38.5687 14.6885 38.7129 14.6885H43.3628C43.6015 14.6885 43.7675 14.9259 43.6854 15.1501L32.9448 44.4723C32.8952 44.6077 32.7664 44.6977 32.6223 44.6977Z M18.653 44.5836H14.003C13.7643 44.5836 13.5984 44.3461 13.6805 44.122L24.4211 14.7998C24.4706 14.6644 24.5995 14.5744 24.7436 14.5744H29.3936C29.6323 14.5744 29.7982 14.8119 29.7161 15.0361L18.9755 44.3583C18.926 44.4936 18.7971 44.5836 18.653 44.5836Z",
</svg>